# xmcd
#
# Track frame offsets:
#	150
#	16475
#	29030
#	44872
#	59720
#	75772
#	89575
#	104830
#	117182
#	141542
#	154162
#	165825
#
# Disc length: 2402 seconds
#
# Revision: 3
# Processed by: cddbd v1.5.2PL0 Copyright (c) Steve Scherf et al.
# Submitted via: EasyCDDAExtractor 15.3.0.1
#
DISCID=a909600c
DTITLE=Lucero - Lucero De Mexico
DYEAR=1992
DGENRE=Latin
TTITLE0=Como Fui A Enamorarme De Ti
TTITLE1=Llorar
TTITLE2=Que No Quede Huella
TTITLE3=Tu Infame Engaño
TTITLE4=Como Duele
TTITLE5=Tristes Recuerdos
TTITLE6=Petalo Y Espinas
TTITLE7=Contigo Y Sin Ti
TTITLE8=Tu Presa Facil
TTITLE9=Corazon Duro
TTITLE10=Verdad Que Duele
TTITLE11=Me Estoy Volviendo Loca
EXTD=
EXTT0=
EXTT1=
EXTT2=
EXTT3=
EXTT4=
EXTT5=
EXTT6=
EXTT7=
EXTT8=
EXTT9=
EXTT10=
EXTT11=
PLAYORDER=
